<mxfile host="Electron" modified="2024-02-16T19:40:21.880Z" agent="Mozilla/5.0 (Windows NT 10.0; Win64; x64) AppleWebKit/537.36 (KHTML, like Gecko) draw.io/22.1.2 Chrome/114.0.5735.289 Electron/25.9.4 Safari/537.36" etag="44hVFAaTMLgpPc5dOPrF" version="22.1.2" type="device">
  <diagram name="Страница — 1" id="JoTP17NS_XffqcO0vcNH">
    <mxGraphModel dx="1613" dy="829" grid="1" gridSize="10" guides="1" tooltips="1" connect="1" arrows="1" fold="1" page="1" pageScale="1" pageWidth="1654" pageHeight="2336" math="0" shadow="0">
      <root>
        <mxCell id="0" />
        <mxCell id="1" parent="0" />
        <mxCell id="hhYmO4kV3IM3PagYo1oB-35" style="edgeStyle=orthogonalEdgeStyle;rounded=0;orthogonalLoop=1;jettySize=auto;html=1;exitX=1;exitY=0.5;exitDx=0;exitDy=0;entryX=0;entryY=0.5;entryDx=0;entryDy=0;" edge="1" parent="1" source="hhYmO4kV3IM3PagYo1oB-1" target="hhYmO4kV3IM3PagYo1oB-16">
          <mxGeometry relative="1" as="geometry" />
        </mxCell>
        <mxCell id="hhYmO4kV3IM3PagYo1oB-1" value="" style="rounded=0;whiteSpace=wrap;html=1;" vertex="1" parent="1">
          <mxGeometry x="100" y="70" width="470" height="300" as="geometry" />
        </mxCell>
        <mxCell id="hhYmO4kV3IM3PagYo1oB-3" value="DEPARTMENT" style="rounded=1;whiteSpace=wrap;html=1;" vertex="1" parent="1">
          <mxGeometry x="130" y="110" width="120" height="60" as="geometry" />
        </mxCell>
        <mxCell id="hhYmO4kV3IM3PagYo1oB-4" value="DEPARTMENT" style="rounded=1;whiteSpace=wrap;html=1;" vertex="1" parent="1">
          <mxGeometry x="280" y="110" width="120" height="60" as="geometry" />
        </mxCell>
        <mxCell id="hhYmO4kV3IM3PagYo1oB-5" value="DEPARTMENT" style="rounded=1;whiteSpace=wrap;html=1;" vertex="1" parent="1">
          <mxGeometry x="420" y="110" width="120" height="60" as="geometry" />
        </mxCell>
        <mxCell id="hhYmO4kV3IM3PagYo1oB-10" value="DEPARTMENT" style="rounded=1;whiteSpace=wrap;html=1;" vertex="1" parent="1">
          <mxGeometry x="130" y="190" width="120" height="60" as="geometry" />
        </mxCell>
        <mxCell id="hhYmO4kV3IM3PagYo1oB-11" value="DEPARTMENT" style="rounded=1;whiteSpace=wrap;html=1;" vertex="1" parent="1">
          <mxGeometry x="280" y="190" width="120" height="60" as="geometry" />
        </mxCell>
        <mxCell id="hhYmO4kV3IM3PagYo1oB-12" value="DEPARTMENT" style="rounded=1;whiteSpace=wrap;html=1;" vertex="1" parent="1">
          <mxGeometry x="420" y="190" width="120" height="60" as="geometry" />
        </mxCell>
        <mxCell id="hhYmO4kV3IM3PagYo1oB-13" value="DEPARTMENT" style="rounded=1;whiteSpace=wrap;html=1;" vertex="1" parent="1">
          <mxGeometry x="135" y="270" width="120" height="60" as="geometry" />
        </mxCell>
        <mxCell id="hhYmO4kV3IM3PagYo1oB-14" value="DEPARTMENT" style="rounded=1;whiteSpace=wrap;html=1;" vertex="1" parent="1">
          <mxGeometry x="285" y="270" width="120" height="60" as="geometry" />
        </mxCell>
        <mxCell id="hhYmO4kV3IM3PagYo1oB-15" value="DEPARTMENT" style="rounded=1;whiteSpace=wrap;html=1;" vertex="1" parent="1">
          <mxGeometry x="425" y="270" width="120" height="60" as="geometry" />
        </mxCell>
        <mxCell id="hhYmO4kV3IM3PagYo1oB-56" style="edgeStyle=orthogonalEdgeStyle;rounded=0;orthogonalLoop=1;jettySize=auto;html=1;exitX=1;exitY=0.5;exitDx=0;exitDy=0;entryX=0;entryY=0.5;entryDx=0;entryDy=0;" edge="1" parent="1" source="hhYmO4kV3IM3PagYo1oB-16" target="hhYmO4kV3IM3PagYo1oB-46">
          <mxGeometry relative="1" as="geometry" />
        </mxCell>
        <mxCell id="hhYmO4kV3IM3PagYo1oB-16" value="" style="rounded=0;whiteSpace=wrap;html=1;" vertex="1" parent="1">
          <mxGeometry x="630" y="70" width="470" height="300" as="geometry" />
        </mxCell>
        <mxCell id="hhYmO4kV3IM3PagYo1oB-20" value="KARDIOLOGIST" style="rounded=1;whiteSpace=wrap;html=1;fillColor=#f8cecc;strokeColor=#b85450;" vertex="1" parent="1">
          <mxGeometry x="660" y="180" width="120" height="60" as="geometry" />
        </mxCell>
        <mxCell id="hhYmO4kV3IM3PagYo1oB-26" value="" style="rounded=0;whiteSpace=wrap;html=1;" vertex="1" parent="1">
          <mxGeometry x="660" y="125" width="410" height="30" as="geometry" />
        </mxCell>
        <mxCell id="hhYmO4kV3IM3PagYo1oB-27" value="KARDIOLOGIST" style="rounded=1;whiteSpace=wrap;html=1;fillColor=#f8cecc;strokeColor=#b85450;" vertex="1" parent="1">
          <mxGeometry x="660" y="125" width="120" height="30" as="geometry" />
        </mxCell>
        <mxCell id="hhYmO4kV3IM3PagYo1oB-28" value="NEOROLOGIST" style="rounded=1;whiteSpace=wrap;html=1;fillColor=#dae8fc;strokeColor=#6c8ebf;" vertex="1" parent="1">
          <mxGeometry x="805" y="125" width="120" height="30" as="geometry" />
        </mxCell>
        <mxCell id="hhYmO4kV3IM3PagYo1oB-29" value="GINEKOLOG" style="rounded=1;whiteSpace=wrap;html=1;fillColor=#d5e8d4;strokeColor=#82b366;" vertex="1" parent="1">
          <mxGeometry x="960" y="125" width="120" height="30" as="geometry" />
        </mxCell>
        <mxCell id="hhYmO4kV3IM3PagYo1oB-30" value="KARDIOLOGIST" style="rounded=1;whiteSpace=wrap;html=1;fillColor=#f8cecc;strokeColor=#b85450;" vertex="1" parent="1">
          <mxGeometry x="805" y="180" width="120" height="60" as="geometry" />
        </mxCell>
        <mxCell id="hhYmO4kV3IM3PagYo1oB-31" value="KARDIOLOGIST" style="rounded=1;whiteSpace=wrap;html=1;fillColor=#f8cecc;strokeColor=#b85450;" vertex="1" parent="1">
          <mxGeometry x="950" y="180" width="120" height="60" as="geometry" />
        </mxCell>
        <mxCell id="hhYmO4kV3IM3PagYo1oB-32" value="KARDIOLOGIST" style="rounded=1;whiteSpace=wrap;html=1;fillColor=#f8cecc;strokeColor=#b85450;" vertex="1" parent="1">
          <mxGeometry x="660" y="270" width="120" height="60" as="geometry" />
        </mxCell>
        <mxCell id="hhYmO4kV3IM3PagYo1oB-34" value="&lt;b&gt;DEPARTMENT 1&lt;/b&gt;" style="text;html=1;align=center;verticalAlign=middle;resizable=0;points=[];autosize=1;strokeColor=none;fillColor=none;" vertex="1" parent="1">
          <mxGeometry x="660" y="80" width="120" height="30" as="geometry" />
        </mxCell>
        <mxCell id="hhYmO4kV3IM3PagYo1oB-46" value="" style="rounded=0;whiteSpace=wrap;html=1;" vertex="1" parent="1">
          <mxGeometry x="1140" y="70" width="470" height="300" as="geometry" />
        </mxCell>
        <mxCell id="hhYmO4kV3IM3PagYo1oB-55" value="&lt;b&gt;DEPARTMENT 1 : Kardiologist&amp;nbsp;&lt;/b&gt;" style="text;html=1;align=center;verticalAlign=middle;resizable=0;points=[];autosize=1;strokeColor=none;fillColor=none;" vertex="1" parent="1">
          <mxGeometry x="1180" y="80" width="200" height="30" as="geometry" />
        </mxCell>
        <mxCell id="hhYmO4kV3IM3PagYo1oB-57" value="16:02:2024" style="rounded=1;whiteSpace=wrap;html=1;" vertex="1" parent="1">
          <mxGeometry x="1170" y="120" width="120" height="30" as="geometry" />
        </mxCell>
        <mxCell id="hhYmO4kV3IM3PagYo1oB-58" value="ADD RECORD" style="rounded=1;whiteSpace=wrap;html=1;" vertex="1" parent="1">
          <mxGeometry x="1170" y="150" width="120" height="30" as="geometry" />
        </mxCell>
        <mxCell id="hhYmO4kV3IM3PagYo1oB-59" value="RECORD 1" style="rounded=1;whiteSpace=wrap;html=1;" vertex="1" parent="1">
          <mxGeometry x="1170" y="205" width="120" height="30" as="geometry" />
        </mxCell>
        <mxCell id="hhYmO4kV3IM3PagYo1oB-60" value="RECORD 1" style="rounded=1;whiteSpace=wrap;html=1;" vertex="1" parent="1">
          <mxGeometry x="1170" y="235" width="120" height="30" as="geometry" />
        </mxCell>
        <mxCell id="hhYmO4kV3IM3PagYo1oB-61" value="RECORD 1" style="rounded=1;whiteSpace=wrap;html=1;" vertex="1" parent="1">
          <mxGeometry x="1170" y="265" width="120" height="30" as="geometry" />
        </mxCell>
        <mxCell id="hhYmO4kV3IM3PagYo1oB-62" value="RECORD 1" style="rounded=1;whiteSpace=wrap;html=1;" vertex="1" parent="1">
          <mxGeometry x="1170" y="295" width="120" height="30" as="geometry" />
        </mxCell>
        <mxCell id="hhYmO4kV3IM3PagYo1oB-63" value="16:02:2024" style="rounded=1;whiteSpace=wrap;html=1;" vertex="1" parent="1">
          <mxGeometry x="1320" y="117.5" width="120" height="30" as="geometry" />
        </mxCell>
        <mxCell id="hhYmO4kV3IM3PagYo1oB-64" value="ADD RECORD" style="rounded=1;whiteSpace=wrap;html=1;" vertex="1" parent="1">
          <mxGeometry x="1320" y="147.5" width="120" height="30" as="geometry" />
        </mxCell>
        <mxCell id="hhYmO4kV3IM3PagYo1oB-65" value="RECORD 1" style="rounded=1;whiteSpace=wrap;html=1;" vertex="1" parent="1">
          <mxGeometry x="1320" y="202.5" width="120" height="30" as="geometry" />
        </mxCell>
        <mxCell id="hhYmO4kV3IM3PagYo1oB-66" value="RECORD 1" style="rounded=1;whiteSpace=wrap;html=1;" vertex="1" parent="1">
          <mxGeometry x="1320" y="232.5" width="120" height="30" as="geometry" />
        </mxCell>
        <mxCell id="hhYmO4kV3IM3PagYo1oB-67" value="RECORD 1" style="rounded=1;whiteSpace=wrap;html=1;" vertex="1" parent="1">
          <mxGeometry x="1320" y="262.5" width="120" height="30" as="geometry" />
        </mxCell>
        <mxCell id="hhYmO4kV3IM3PagYo1oB-68" value="RECORD 1" style="rounded=1;whiteSpace=wrap;html=1;" vertex="1" parent="1">
          <mxGeometry x="1320" y="292.5" width="120" height="30" as="geometry" />
        </mxCell>
        <mxCell id="hhYmO4kV3IM3PagYo1oB-69" value="16:02:2024" style="rounded=1;whiteSpace=wrap;html=1;" vertex="1" parent="1">
          <mxGeometry x="1480" y="115" width="120" height="30" as="geometry" />
        </mxCell>
        <mxCell id="hhYmO4kV3IM3PagYo1oB-70" value="ADD RECORD" style="rounded=1;whiteSpace=wrap;html=1;" vertex="1" parent="1">
          <mxGeometry x="1480" y="145" width="120" height="30" as="geometry" />
        </mxCell>
        <mxCell id="hhYmO4kV3IM3PagYo1oB-71" value="RECORD 1" style="rounded=1;whiteSpace=wrap;html=1;" vertex="1" parent="1">
          <mxGeometry x="1480" y="200" width="120" height="30" as="geometry" />
        </mxCell>
        <mxCell id="hhYmO4kV3IM3PagYo1oB-72" value="RECORD 1" style="rounded=1;whiteSpace=wrap;html=1;" vertex="1" parent="1">
          <mxGeometry x="1480" y="230" width="120" height="30" as="geometry" />
        </mxCell>
        <mxCell id="hhYmO4kV3IM3PagYo1oB-73" value="RECORD 1" style="rounded=1;whiteSpace=wrap;html=1;" vertex="1" parent="1">
          <mxGeometry x="1480" y="260" width="120" height="30" as="geometry" />
        </mxCell>
        <mxCell id="hhYmO4kV3IM3PagYo1oB-74" value="RECORD 1" style="rounded=1;whiteSpace=wrap;html=1;" vertex="1" parent="1">
          <mxGeometry x="1480" y="290" width="120" height="30" as="geometry" />
        </mxCell>
      </root>
    </mxGraphModel>
  </diagram>
</mxfile>
